#!OML:ASF Y:\EmotionMaleHayes\Project 1\Capture day 1\Session 1\Male1.ASF
:FULLY-SPECIFIED
:DEGREES
45
root -28.8418 17.2076 -0.48096 33.174 85.7768 31.0208
lowerback 4.73167 1.68848 -4.09534
upperback 0.944122 2.05364 -0.603734
thorax -1.80101 1.05334 1.54442
lowerneck -23.4624 2.79145 3.53881
upperneck 25.2503 3.21496 -1.28571
head 12.3342 1.67069 -0.508027
rclavicle 1.54804e-014 -1.14301e-014
rhumerus -35.0035 3.95677 -87.832
rradius 32.0378
rwrist 1.86849
rhand -11.7571 -31.0952
rfingers 7.12502
rthumb 14.2911 -60.5834
lclavicle 1.54804e-014 -1.14301e-014
lhumerus -30.0567 -11.9761 92.2182
lradius 24.5921
lwrist -14.751
lhand -13.9519 -27.0702
lfingers 7.12502
lthumb 12.1755 2.5555
rfemur 10.2905 -4.05633 11.8679
rtibia 0.483968
rfoot -16.0866 -10.5227
rtoes 9.75177
lfemur 11.8551 -1.69503 -14.8559
ltibia -2.19254
lfoot -14.478 18.9596
ltoes -6.52749
46
root -28.8404 17.2071 -0.480802 34.713 85.7953 32.5166
lowerback 4.70554 1.65194 -4.19952
upperback 0.936953 2.00082 -0.629038
thorax -1.79331 1.02759 1.58076
lowerneck -23.4357 2.80815 3.5867
upperneck 25.2105 3.22651 -1.30716
head 12.315 1.67729 -0.522616
rclavicle 2.28105e-014 3.97569e-015
rhumerus -34.867 3.87308 -87.7703
rradius 31.8237
rwrist 1.95581
rhand -11.6765 -30.6237
rfingers 7.12502
rthumb 14.3687 -60.1064
lclavicle 2.28105e-014 3.97569e-015
lhumerus -30.1323 -11.7683 92.2309
lradius 24.7199
lwrist -15.0077
lhand -13.3737 -27.1705
lfingers 7.12502
lthumb 12.7329 2.42131
rfemur 10.2922 -3.99675 11.7968
rtibia 0.431072
rfoot -16.0218 -10.6576
rtoes 9.83579
lfemur 11.8423 -1.89888 -15.0092
ltibia -2.28102
lfoot -14.4034 19.0863
ltoes -6.49078
47
root -28.8398 17.2058 -0.479747 34.8632 85.8013 32.62
lowerback 4.69838 1.64472 -4.22061
upperback 0.942148 1.99071 -0.63776
thorax -1.78375 1.02247 1.58454
lowerneck -23.5355 2.81288 3.56403
upperneck 25.2279 3.22169 -1.2587
head 12.3399 1.67838 -0.500197
rclavicle 2.79789e-014 -1.59028e-014
rhumerus -34.7887 3.9986 -87.7824
rradius 31.7325
rwrist 1.82688
rhand -11.6045 -30.2618
rfingers 7.12502
rthumb 14.4381 -59.7396
lclavicle 2.79789e-014 -1.59028e-014
lhumerus -30.2024 -12.1368 92.437
lradius 24.953
lwrist -14.6917
lhand -13.9821 -26.7475
lfingers 7.12502
lthumb 12.1464 2.87987
rfemur 10.2354 -3.7788 11.8749
rtibia 0.448492
rfoot -16.0717 -10.8092
rtoes 10.6995
lfemur 11.6805 -1.46863 -14.8425
ltibia -2.06936
lfoot -14.2658 18.6399
ltoes -6.45082
48
root -28.8361 17.2063 -0.480402 34.4824 85.7969 32.2239
lowerback 4.71284 1.65033 -4.17941
upperback 0.933431 1.99886 -0.657229
thorax -1.79923 1.02669 1.54039
lowerneck -23.6643 2.83223 3.64306
upperneck 25.3856 3.24799 -1.35212
head 12.4319 1.68541 -0.542069
rclavicle 1.5207e-014 -1.98785e-015
rhumerus -34.8701 4.1959 -87.8615
rradius 31.7867
rwrist 1.66037
rhand -11.6406 -30.4099
rfingers 7.12502
rthumb 14.4033 -59.8902
lclavicle 1.5207e-014 -1.98785e-015
lhumerus -30.2548 -12.5939 92.6017
lradius 24.9927
lwrist -14.3433
lhand -15.9437 -26.5729
lfingers 7.12502
lthumb 10.2545 3.15718
rfemur 10.1874 -3.55483 11.9813
rtibia 0.52223
rfoot -16.2764 -11.002
rtoes 11.0004
lfemur 11.5865 -1.08755 -14.6952
ltibia -1.87353
lfoot -14.2091 18.3059
ltoes -6.77484
49
root -28.8326 17.2075 -0.482362 34.426 85.7914 32.1571
lowerback 4.69367 1.64658 -4.14623
upperback 0.931306 1.99614 -0.679248
thorax -1.78864 1.025 1.49993
lowerneck -23.6582 2.83348 3.69634
upperneck 25.4321 3.26032 -1.4434
head 12.4524 1.68428 -0.583375
rclavicle -9.46712e-015 -5.86415e-015
rhumerus -34.9326 4.21205 -87.883
rradius 31.8074
rwrist 1.68305
rhand -11.7042 -30.7095
rfingers 7.12502
rthumb 14.342 -60.1941
lclavicle -9.46712e-015 -5.86415e-015
lhumerus -30.2661 -12.8542 92.71
lradius 25.0332
lwrist -14.1153
lhand -15.8103 -26.3902
lfingers 7.12502
lthumb 10.3831 3.33345
rfemur 10.1633 -3.57905 11.9718
rtibia 0.566316
rfoot -16.4316 -10.9555
rtoes 11.6732
lfemur 11.5823 -1.05265 -14.7126
ltibia -1.85371
lfoot -14.1759 18.3372
ltoes -7.30612
50
root -28.8309 17.2075 -0.483625 35.4832 85.7444 33.1872
lowerback 4.62484 1.63229 -4.24544
upperback 0.947402 1.9764 -0.707621
thorax -1.7347 1.01467 1.52977
lowerneck -23.5286 2.80481 3.60611
upperneck 25.2912 3.2201 -1.33124
head 12.3658 1.67282 -0.534756
rclavicle 2.28602e-015 -3.37934e-015
rhumerus -34.8576 4.19282 -87.8573
rradius 31.6689
rwrist 1.74778
rhand -11.8218 -30.6308
rfingers 7.12502
rthumb 14.2288 -60.1234
lclavicle 2.28602e-015 -3.37934e-015
lhumerus -30.1722 -12.8596 92.747
lradius 24.9992
lwrist -14.1478
lhand -15.1986 -26.8124
lfingers 7.12502
lthumb 10.9732 2.88083
rfemur 10.1478 -3.68783 11.8234
rtibia 0.554051
rfoot -16.547 -10.7891
rtoes 12.5761
lfemur 11.56 -1.05046 -14.8411
ltibia -1.86122
lfoot -14.1392 18.372
ltoes -7.43159
51
root -28.8303 17.2079 -0.484026 36.2953 85.7135 33.9371
lowerback 4.5748 1.61651 -4.34864
upperback 0.92316 1.95214 -0.710295
thorax -1.73356 1.00332 1.58722
lowerneck -23.3724 2.76147 3.46574
upperneck 25.1576 3.16768 -1.17798
head 12.2751 1.65717 -0.464729
rclavicle 4.8578e-015 -3.77691e-015
rhumerus -34.8395 4.2215 -87.8066
rradius 31.5713
rwrist 1.74461
rhand -11.9216 -30.3741
rfingers 7.12502
rthumb 14.1326 -59.8734
lclavicle 4.8578e-015 -3.77691e-015
lhumerus -30.1078 -12.8166 92.7936
lradius 24.9557
lwrist -14.3785
lhand -14.2339 -27.4125
lfingers 7.12502
lthumb 11.9036 2.22907
rfemur 10.0723 -3.69827 11.7563
rtibia 0.57952
rfoot -16.5836 -10.7577
rtoes 11.8063
lfemur 11.4838 -1.0765 -14.9312
ltibia -1.84371
lfoot -14.1822 18.3823
ltoes -6.91391
